<?xml version="1.0" encoding="utf-8"?>
<!-- Generator: Adobe Illustrator 21.0.0, SVG Export Plug-In . SVG Version: 6.00 Build 0)  -->
<svg version="1.0" id="Layer_1" xmlns="http://www.w3.org/2000/svg" xmlns:xlink="http://www.w3.org/1999/xlink" x="0px" y="0px"
	 width="50px" height="50px" viewBox="0 0 50 50" style="enable-background:new 0 0 50 50;" xml:space="preserve">
<style type="text/css">
	.st0{fill:none;stroke:#FFFFFF;stroke-width:0.9804;stroke-miterlimit:10;}
	.st1{fill:#FFFFFF;}
</style>
<g>
	<circle class="st0" cx="25" cy="25" r="24.5"/>
	<path class="st1" d="M15,34.3c0,0,0.1,0.1,0.1,0.1c2.6,2.7,6.2,4.3,9.9,4.3s7.4-1.6,9.9-4.3c0,0,0.1,0,0.1-0.1c0,0,0-0.1,0.1-0.1
		c4.8-5.2,4.8-13.3,0-18.5l0,0c0,0,0-0.1-0.1-0.1c0,0-0.1-0.1-0.1-0.1c-2.6-2.7-6.2-4.3-9.9-4.3s-7.4,1.6-9.9,4.3c0,0-0.1,0-0.1,0.1
		c0,0,0,0.1-0.1,0.1c-4.8,5.2-4.8,13.3,0,18.5C14.9,34.3,14.9,34.3,15,34.3z M28.7,36.8c1.1-1.3,1.8-2.7,2.3-4.3v0
		c0.9,0.4,1.7,0.9,2.4,1.5C32.1,35.2,30.5,36.2,28.7,36.8z M34.4,32.9c-0.9-0.7-1.9-1.3-3-1.8c0.4-1.8,0.7-3.6,0.7-5.4h5.1
		C37.2,28.3,36.2,30.9,34.4,32.9z M37.3,24.3h-5.1c0-1.8-0.3-3.6-0.7-5.4c1.1-0.5,2.1-1.1,3-1.8C36.2,19.1,37.2,21.7,37.3,24.3z
		 M33.5,16.1c-0.7,0.6-1.6,1.1-2.4,1.5c-0.5-1.6-1.3-3-2.3-4.3C30.5,13.8,32.1,14.8,33.5,16.1z M25.7,12.8c1.7,0.4,3.2,2.5,4.1,5.3
		c-1.3,0.5-2.7,0.7-4.1,0.8V12.8z M25.7,20.2c1.5-0.1,3-0.3,4.5-0.8c0.4,1.6,0.6,3.3,0.6,4.9h-5.1V20.2z M25.7,25.7h5.1
		c0,1.7-0.3,3.3-0.6,4.9c-1.4-0.5-3-0.8-4.5-0.8V25.7z M25.7,31.1c1.4,0.1,2.8,0.3,4.1,0.8c-0.9,2.9-2.4,4.9-4.1,5.3V31.1z
		 M16.5,33.9c0.7-0.6,1.6-1.1,2.4-1.5v0c0.5,1.6,1.3,3,2.3,4.3C19.5,36.2,17.9,35.2,16.5,33.9z M24.3,37.2c-1.7-0.4-3.2-2.5-4.1-5.3
		c1.3-0.5,2.7-0.7,4.1-0.8L24.3,37.2L24.3,37.2z M24.3,29.8c-1.5,0.1-3,0.3-4.5,0.8c-0.4-1.6-0.6-3.3-0.6-4.9h5.1V29.8z M24.3,24.3
		h-5.1c0-1.7,0.3-3.3,0.6-4.9c1.4,0.5,3,0.8,4.5,0.8V24.3z M24.3,12.8v6.1c-1.4-0.1-2.8-0.3-4.1-0.8C21.1,15.2,22.6,13.2,24.3,12.8z
		 M21.3,13.2c-1.1,1.3-1.8,2.7-2.3,4.3v0c-0.9-0.4-1.7-0.9-2.4-1.5C17.9,14.8,19.5,13.8,21.3,13.2z M15.6,17.1
		c0.9,0.7,1.9,1.3,3,1.8c-0.4,1.8-0.7,3.6-0.7,5.4h-5.1C12.8,21.7,13.8,19.1,15.6,17.1z M17.8,25.7c0,1.8,0.3,3.6,0.7,5.4
		c-1.1,0.5-2.1,1.1-3,1.8c-1.7-2-2.7-4.6-2.9-7.2L17.8,25.7L17.8,25.7z"/>
</g>
</svg>
