<?xml version="1.0" encoding="utf-8"?>
<!-- Generator: Adobe Illustrator 21.0.0, SVG Export Plug-In . SVG Version: 6.00 Build 0)  -->
<svg version="1.0" id="Layer_1" xmlns="http://www.w3.org/2000/svg" xmlns:xlink="http://www.w3.org/1999/xlink" x="0px" y="0px"
	 width="50px" height="50px" viewBox="0 0 50 50" style="enable-background:new 0 0 50 50;" xml:space="preserve">
<style type="text/css">
	.st0{fill:none;stroke:#000000;stroke-width:0.9699;stroke-miterlimit:10;}
</style>
<g>
	<circle class="st0" cx="25" cy="25" r="24.2"/>
	<g>
		<circle cx="34.1" cy="21.7" r="0.7"/>
		<circle cx="29.6" cy="21.7" r="0.7"/>
		<circle cx="25" cy="21.7" r="0.7"/>
		<circle cx="20.4" cy="21.7" r="0.7"/>
		<circle cx="15.9" cy="21.7" r="0.7"/>
		<circle cx="34.1" cy="26.3" r="0.7"/>
		<circle cx="29.6" cy="26.3" r="0.7"/>
		<circle cx="25" cy="26.3" r="0.7"/>
		<circle cx="15.9" cy="26.3" r="0.7"/>
		<circle cx="34.1" cy="30.9" r="0.7"/>
		<circle cx="29.6" cy="30.9" r="0.7"/>
		<circle cx="25" cy="30.9" r="0.7"/>
		<circle cx="20.4" cy="30.9" r="0.7"/>
		<circle cx="15.9" cy="30.9" r="0.7"/>
		<path d="M22.6,23.5h-4.3c-0.3,0-0.6,0.3-0.6,0.6v4.3c0,0.3,0.3,0.6,0.6,0.6h4.3c0.3,0,0.6-0.3,0.6-0.6v-4.3
			C23.2,23.8,22.9,23.5,22.6,23.5z M18.9,27.8v-3.1H22v3.1H18.9z"/>
		<path d="M37.7,15.4h-4.5v-0.8c0-0.4-0.3-0.7-0.7-0.7c-0.4,0-0.7,0.3-0.7,0.7v0.8h-3.7v-0.8c0-0.4-0.3-0.7-0.7-0.7
			c-0.4,0-0.7,0.3-0.7,0.7v0.8h-3.7v-0.8c0-0.4-0.3-0.7-0.7-0.7s-0.7,0.3-0.7,0.7v0.8h-3.7v-0.8c0-0.4-0.3-0.7-0.7-0.7
			c-0.4,0-0.7,0.3-0.7,0.7v0.8h-4.5c-1.1,0-2,0.9-2,2v16.6c0,1.1,0.9,2,2,2h25.5c1.1,0,2-0.9,2-2V17.4
			C39.8,16.3,38.9,15.4,37.7,15.4z M37.7,34.7H12.3c-0.4,0-0.7-0.3-0.7-0.7V17.4c0-0.4,0.3-0.7,0.7-0.7h4.5v0.8
			c0,0.4,0.3,0.7,0.7,0.7s0.7-0.3,0.7-0.7v-0.8h3.7v0.8c0,0.4,0.3,0.7,0.7,0.7c0.4,0,0.7-0.3,0.7-0.7v-0.8h3.7v0.8
			c0,0.4,0.3,0.7,0.7,0.7c0.4,0,0.7-0.3,0.7-0.7v-0.8h3.7v0.8c0,0.4,0.3,0.7,0.7,0.7c0.4,0,0.7-0.3,0.7-0.7v-0.8h4.5
			c0.4,0,0.7,0.3,0.7,0.7v16.6h0C38.4,34.4,38.1,34.7,37.7,34.7z"/>
	</g>
</g>
</svg>
