<?xml version="1.0" encoding="utf-8"?>
<!-- Generator: Adobe Illustrator 21.0.0, SVG Export Plug-In . SVG Version: 6.00 Build 0)  -->
<svg version="1.0" id="Layer_1" xmlns="http://www.w3.org/2000/svg" xmlns:xlink="http://www.w3.org/1999/xlink" x="0px" y="0px"
	 width="50px" height="50px" viewBox="0 0 50 50" style="enable-background:new 0 0 50 50;" xml:space="preserve">
<style type="text/css">
	.st0{fill:none;stroke:#000000;stroke-width:0.9699;stroke-miterlimit:10;}
</style>
<g>
	<circle class="st0" cx="25" cy="25" r="24.2"/>
	<g>
		<path d="M32.1,28.5C32,28.5,32,28.4,32.1,28.5c-0.5-0.3-0.8-0.5-1.2-0.7c-0.7-0.5-1.3-1.1-1.9-1.6c-0.3-0.3-0.6-0.6-1-1
			c-0.4-0.4-0.8-0.8-1.2-1.2c-0.4-0.4-0.7-0.8-1.1-1.1c-0.7-0.7-1.4-1.4-2.2-2.1c-0.4-0.4-0.9-0.8-1.3-1.2c-0.3-0.2-0.5-0.4-0.8-0.6
			c-0.5-0.3-1-0.6-1.6-0.9c-0.1-0.1-0.2-0.1-0.3,0c-0.7,0.3-1.4,0.5-2.1,0.8c-0.1,0-0.1,0.1-0.2,0.1c0.1,0.9,0.2,1.7,0.3,2.6
			c0,0,0,0,0,0c0.5,0.2,1,0.5,1.5,0.9c0.7,0.5,1.3,1.1,2,1.7c0.3,0.3,0.7,0.6,1,1c0.4,0.4,0.8,0.8,1.2,1.2c0.4,0.4,0.7,0.8,1.1,1.1
			c0.6,0.6,1.2,1.2,1.9,1.8c0.4,0.4,0.8,0.8,1.2,1.1c0.7,0.6,1.5,1.2,2.3,1.7c0.1,0,0.2,0.1,0.3,0.1c0-0.9-0.1-1.7-0.1-2.6
			C30.6,29.1,31.3,28.8,32.1,28.5z"/>
		<path d="M39.7,26.9c-0.4-0.4-0.9-0.8-1-0.9c-0.2,0.7-0.5,1.3-1,1.9c-0.3,0.4-0.7,0.7-1.2,0.9c-0.7,0.3-1.4,0.4-2.2,0.4
			c-0.6,0-1.1-0.2-1.7-0.4c-0.1,0-0.1,0-0.2,0c-0.6,0.3-1.3,0.5-1.9,0.8c-0.1,0-0.2,0.1-0.3,0.1c0,0.1,0,0.3,0,0.4
			c0,0.3,0,0.6,0.1,0.9c0,0.4,0,0.8,0.1,1.2c0,0.1,0,0.1,0.1,0.1c0.1,0,0.2,0.1,0.3,0.1c0.7,0.3,1.4,0.6,2.1,0.7
			c0.5,0.1,1.1,0.2,1.6,0.2c0.3,0,0.7,0,1,0c0.4,0,0.8-0.1,1.2-0.1c0.8-0.2,1.6-0.4,2.4-0.8c0.8-0.5,1.6-1.1,2.2-1.8
			c0.5-0.5,0.8-1.1,1.1-1.8c0.3-0.6,0.5-1.2,0.6-1.9c0-0.1,0-0.2,0.1-0.3c-0.8,0.4-1.6,0.8-2.4,1.1C40.4,27.5,40,27.2,39.7,26.9z"/>
		<path d="M7,23.7c0.6,0.5,1.2,0.9,1.8,1.4c0.1,0.1,0.1,0.1,0.2,0c0.7-0.3,1.4-0.6,2.1-0.8c0.1,0,0.1-0.1,0.2-0.2
			c0.1-0.3,0.1-0.6,0.3-0.9c0.2-0.5,0.5-1,1-1.4c0.3-0.3,0.6-0.5,0.9-0.6c0.6-0.3,1.3-0.4,2-0.4c0.5,0,1,0.1,1.5,0.3
			c0,0,0.1,0,0.1,0c-0.1-0.9-0.2-1.8-0.4-2.7c0.8-0.3,1.6-0.6,2.3-0.9c0,0,0,0,0,0c0,0-0.1,0-0.1-0.1c-0.5-0.2-0.9-0.4-1.4-0.5
			c-0.7-0.2-1.4-0.3-2.1-0.3c-0.5,0-0.9,0-1.4,0c-0.6,0.1-1.2,0.2-1.7,0.3c-0.4,0.1-0.8,0.3-1.2,0.5c-0.8,0.4-1.5,1-2.2,1.7
			c-0.5,0.6-1,1.3-1.3,2C7.2,22,7,22.7,6.9,23.5C6.9,23.6,6.9,23.7,7,23.7z"/>
		<path d="M17.1,31C17.1,31,17.1,31,17.1,31c-0.2-0.3-0.4-0.4-0.5-0.6c-0.3-0.3-0.6-0.6-0.9-1c0-0.1-0.1-0.1-0.2-0.1
			c-0.2,0-0.5,0-0.7-0.1c-0.7-0.1-1.3-0.4-1.8-0.8c-0.3-0.2-0.5-0.5-0.8-0.8c-0.3-0.3-0.5-0.7-0.7-1.1c-0.3-0.6-0.4-1.2-0.4-1.8
			c0,0,0-0.1,0-0.1c0,0-0.1,0-0.1,0c-0.7,0.3-1.4,0.6-2.2,0.8c-0.1,0-0.1,0-0.2,0c-0.6-0.4-1.1-0.9-1.7-1.3
			c-0.1-0.1-0.1-0.1-0.2-0.2c0,0,0,0.1,0,0.1c0,0.4,0,0.7,0,1.1c0,0.3,0,0.6,0.1,0.9c0.1,0.8,0.4,1.6,0.7,2.3c0.5,1,1.2,1.9,2.1,2.7
			c0.8,0.7,1.8,1.3,2.9,1.7c0.6,0.2,1.2,0.3,1.8,0.4c0.5,0.1,1,0.1,1.5,0.1c0.1,0,0.1,0,0.1-0.1c0.1-0.2,0.2-0.3,0.2-0.5
			c0.3-0.5,0.5-1,0.8-1.6C17.1,31.2,17.1,31.1,17.1,31z"/>
		<path d="M43.2,24.5c0-0.4-0.1-0.8-0.1-1.1c-0.1-0.7-0.4-1.4-0.7-2.1c-0.2-0.4-0.5-0.8-0.7-1.2c-0.5-0.7-1.1-1.2-1.7-1.7
			c-0.8-0.6-1.6-1-2.5-1.3c-0.9-0.3-1.8-0.4-2.8-0.4c0,0-0.1,0-0.1,0c0.6,0.6,1.2,1.3,1.8,1.9c-0.5,0.8-1,1.5-1.5,2.3
			c0.1,0,0.2,0,0.3,0c0.6,0.1,1.1,0.3,1.6,0.6c0.9,0.5,1.5,1.3,1.9,2.3c0.2,0.5,0.2,1.1,0.2,1.7c0,0.1,0,0.1,0.1,0.1
			c0.1,0.1,0.2,0.2,0.4,0.3c0.3,0.3,0.6,0.6,1,0.9c0.2,0.2,0.4,0.4,0.6,0.5c0.8-0.4,1.6-0.8,2.4-1.1c0-0.2,0-0.5,0.1-0.7
			C43.2,25.1,43.2,24.8,43.2,24.5z"/>
		<path d="M28.6,24.3c0.2-0.2,0.5-0.5,0.7-0.7c0.4-0.4,0.8-0.7,1.2-1c0.6-0.5,1.2-0.9,1.9-1.2c0.6-0.3,1.1-0.4,1.7-0.5
			c0.1,0,0.2-0.1,0.2-0.1c0.4-0.6,0.8-1.2,1.2-1.8c0.1-0.1,0.1-0.2,0.2-0.3c0,0-0.1-0.1-0.1-0.1c-0.2-0.2-0.3-0.3-0.5-0.5
			c-0.4-0.4-0.8-0.9-1.3-1.3c-0.1-0.1-0.1-0.1-0.2-0.1c-0.2,0-0.5,0.1-0.7,0.1c-0.9,0.2-1.7,0.5-2.5,0.9C29.7,18,29,18.5,28.4,19
			c-0.9,0.7-1.7,1.4-2.4,2.2c-0.1,0.1-0.3,0.3-0.4,0.4c-0.1,0.1-0.1,0.1-0.2,0.2c1,1,1.9,1.9,2.9,2.9C28.4,24.6,28.5,24.4,28.6,24.3
			z"/>
		<path d="M21.1,26c-0.5,0.5-1.1,1.1-1.7,1.6c-0.4,0.3-0.7,0.6-1.1,0.9c-0.6,0.4-1.2,0.7-1.9,0.9c0,0,0,0-0.1,0
			c0.5,0.5,1,1.1,1.4,1.6c-0.4,0.8-0.8,1.6-1.2,2.4c0,0,0,0,0,0c0.6-0.1,1.2-0.2,1.7-0.4c0.5-0.2,0.9-0.4,1.3-0.6
			c0.5-0.3,1-0.6,1.5-0.9c0.9-0.6,1.7-1.3,2.4-2c0.4-0.3,0.7-0.7,1.1-1c0,0,0.1-0.1,0.1-0.1c-1-1-1.9-1.9-2.9-2.9
			C21.5,25.5,21.3,25.8,21.1,26z"/>
	</g>
</g>
</svg>
