<?xml version="1.0" encoding="utf-8"?>
<!-- Generator: Adobe Illustrator 21.0.0, SVG Export Plug-In . SVG Version: 6.00 Build 0)  -->
<svg version="1.0" id="Layer_1" xmlns="http://www.w3.org/2000/svg" xmlns:xlink="http://www.w3.org/1999/xlink" x="0px" y="0px"
	 width="50px" height="50px" viewBox="0 0 50 50" style="enable-background:new 0 0 50 50;" xml:space="preserve">
<style type="text/css">
	.st0{fill:none;stroke:#000000;stroke-width:0.9699;stroke-miterlimit:10;}
</style>
<g>
	<circle class="st0" cx="25" cy="25" r="24.2"/>
	<g>
		<path d="M34.6,12.6c-0.8-0.8-1.7-1.2-2.9-1.2c-1.1,0-2.1,0.4-2.9,1.2c-0.8,0.8-1.2,1.7-1.2,2.9c0,0.7,0.2,1.4,0.5,2
			c0.4,0.6,0.9,1.1,1.5,1.5c0,0.7-0.1,1.4-0.2,1.9c-0.1,0.6-0.3,1-0.6,1.5c-0.3,0.4-0.6,0.8-0.9,1.1c-0.3,0.3-0.7,0.6-1.2,0.8
			c-0.5,0.3-1,0.5-1.5,0.7c-0.5,0.2-1.1,0.4-1.9,0.6c-1.4,0.4-2.5,0.8-3.3,1.2V16.3c0.6-0.4,1.1-0.8,1.5-1.5c0.4-0.6,0.5-1.3,0.5-2
			c0-1.1-0.4-2.1-1.2-2.9c-0.8-0.8-1.7-1.2-2.9-1.2c-1.1,0-2.1,0.4-2.9,1.2c-0.8,0.8-1.2,1.7-1.2,2.9c0,0.7,0.2,1.4,0.5,2
			c0.4,0.6,0.9,1.1,1.5,1.5v17.3c-0.6,0.4-1.1,0.8-1.5,1.5c-0.4,0.6-0.5,1.3-0.5,2c0,1.1,0.4,2.1,1.2,2.9c0.8,0.8,1.7,1.2,2.9,1.2
			c1.1,0,2.1-0.4,2.9-1.2c0.8-0.8,1.2-1.7,1.2-2.9c0-0.7-0.2-1.4-0.5-2c-0.4-0.6-0.9-1.1-1.5-1.5v-0.5c0-1,0.3-1.7,0.9-2.1
			c0.6-0.4,1.8-0.9,3.6-1.5c1.9-0.6,3.3-1.2,4.3-1.7c3.2-1.8,4.8-4.7,4.8-8.8c0.6-0.4,1.1-0.8,1.5-1.5c0.4-0.6,0.5-1.3,0.5-2
			C35.8,14.4,35.4,13.4,34.6,12.6z M19.7,38.6c-0.4,0.4-0.9,0.6-1.4,0.6c-0.6,0-1-0.2-1.4-0.6c-0.4-0.4-0.6-0.9-0.6-1.4
			c0-0.6,0.2-1,0.6-1.4c0.4-0.4,0.9-0.6,1.4-0.6c0.6,0,1,0.2,1.4,0.6c0.4,0.4,0.6,0.9,0.6,1.4C20.3,37.7,20.1,38.2,19.7,38.6z
			 M19.7,14.3c-0.4,0.4-0.9,0.6-1.4,0.6c-0.6,0-1-0.2-1.4-0.6c-0.4-0.4-0.6-0.9-0.6-1.4c0-0.6,0.2-1,0.6-1.4
			c0.4-0.4,0.9-0.6,1.4-0.6c0.6,0,1,0.2,1.4,0.6c0.4,0.4,0.6,0.9,0.6,1.4C20.3,13.4,20.1,13.9,19.7,14.3z M33.2,17
			c-0.4,0.4-0.9,0.6-1.4,0.6c-0.6,0-1-0.2-1.4-0.6c-0.4-0.4-0.6-0.9-0.6-1.4c0-0.6,0.2-1,0.6-1.4c0.4-0.4,0.9-0.6,1.4-0.6
			c0.6,0,1,0.2,1.4,0.6c0.4,0.4,0.6,0.9,0.6,1.4C33.8,16.1,33.6,16.6,33.2,17z"/>
	</g>
</g>
</svg>
