<?xml version="1.0" encoding="utf-8"?>
<!-- Generator: Adobe Illustrator 21.0.0, SVG Export Plug-In . SVG Version: 6.00 Build 0)  -->
<svg version="1.0" id="Layer_1" xmlns="http://www.w3.org/2000/svg" xmlns:xlink="http://www.w3.org/1999/xlink" x="0px" y="0px"
	 width="50px" height="50px" viewBox="0 0 50 50" style="enable-background:new 0 0 50 50;" xml:space="preserve">
<style type="text/css">
	.st0{fill:none;stroke:#000000;stroke-width:0.9699;stroke-miterlimit:10;}
</style>
<path d="M13.5,35.7c0,0,0.1,0.1,0.1,0.1c3,3.1,7.1,4.9,11.4,4.9s8.5-1.8,11.4-4.9c0,0,0.1,0,0.1-0.1c0,0,0-0.1,0.1-0.1
	c5.5-6,5.5-15.2,0-21.2l0,0c0,0,0-0.1-0.1-0.1c0,0-0.1-0.1-0.1-0.1c-3-3.1-7.1-4.9-11.4-4.9s-8.4,1.8-11.4,4.9c0,0-0.1,0.1-0.1,0.1
	c0,0,0,0.1-0.1,0.1c-5.5,6-5.5,15.2,0,21.2C13.4,35.6,13.4,35.7,13.5,35.7z M29.3,38.5c1.2-1.5,2.1-3.1,2.7-5v0c1,0.5,1.9,1,2.8,1.7
	C33.2,36.7,31.3,37.8,29.3,38.5z M35.8,34.1c-1-0.8-2.2-1.5-3.4-2.1c0.5-2,0.8-4.1,0.8-6.2h5.9C39,28.8,37.8,31.8,35.8,34.1z
	 M39.1,24.2h-5.9c0-2.1-0.3-4.2-0.8-6.2c1.2-0.6,2.4-1.3,3.4-2.1C37.8,18.2,39,21.2,39.1,24.2z M34.7,14.8C33.9,15.4,33,16,32,16.5
	c-0.6-1.8-1.5-3.5-2.7-5C31.3,12.2,33.2,13.3,34.7,14.8z M25.8,10.9c1.9,0.5,3.6,2.8,4.7,6.1c-1.5,0.5-3.1,0.8-4.7,0.9V10.9z
	 M25.8,19.5c1.8-0.1,3.5-0.4,5.1-0.9c0.4,1.8,0.7,3.7,0.7,5.6h-5.9V19.5z M25.8,25.8h5.9c0,1.9-0.3,3.8-0.7,5.6
	c-1.7-0.6-3.4-0.9-5.1-0.9V25.8z M25.8,32c1.6,0.1,3.2,0.4,4.7,0.9c-1.1,3.3-2.8,5.6-4.7,6.1V32z M15.2,35.2
	c0.9-0.7,1.8-1.2,2.8-1.7v0c0.6,1.8,1.5,3.5,2.7,5C18.7,37.8,16.8,36.7,15.2,35.2z M24.2,39.1c-1.9-0.5-3.6-2.8-4.7-6.1
	c1.5-0.5,3.1-0.8,4.7-0.9L24.2,39.1L24.2,39.1z M24.2,30.5c-1.8,0.1-3.5,0.4-5.1,0.9c-0.4-1.8-0.7-3.7-0.7-5.6h5.9V30.5z M24.2,24.2
	h-5.9c0-1.9,0.3-3.8,0.7-5.6c1.7,0.6,3.4,0.9,5.1,0.9V24.2z M24.2,10.9v7c-1.6-0.1-3.2-0.4-4.7-0.9C20.6,13.8,22.3,11.5,24.2,10.9z
	 M20.7,11.5c-1.2,1.5-2.1,3.1-2.7,5v0c-1-0.5-1.9-1-2.8-1.7C16.8,13.3,18.7,12.2,20.7,11.5z M14.2,15.9c1,0.8,2.2,1.5,3.4,2.1
	c-0.5,2-0.8,4.1-0.8,6.2h-5.9C11,21.2,12.2,18.2,14.2,15.9z M16.8,25.8c0,2.1,0.3,4.2,0.8,6.2c-1.2,0.6-2.4,1.3-3.4,2.1
	c-2-2.3-3.1-5.3-3.3-8.3L16.8,25.8L16.8,25.8z"/>
<circle class="st0" cx="25" cy="25" r="24.2"/>
</svg>
