<?xml version="1.0" encoding="utf-8"?>
<!-- Generator: Adobe Illustrator 21.0.0, SVG Export Plug-In . SVG Version: 6.00 Build 0)  -->
<svg version="1.0" id="Layer_1" xmlns="http://www.w3.org/2000/svg" xmlns:xlink="http://www.w3.org/1999/xlink" x="0px" y="0px"
	 width="50px" height="50px" viewBox="0 0 50 50" style="enable-background:new 0 0 50 50;" xml:space="preserve">
<style type="text/css">
	.st0{fill:#FFFFFF;}
</style>
<g>
	<path class="st0" d="M25,0C11.2,0,0,11.2,0,25c0,13.8,11.2,25,25,25s25-11.2,25-25C50,11.2,38.8,0,25,0z M37.1,15.9l-8.2,11.6
		c0,0,0,0,0,0c-0.3,0.4-0.5,0.9-0.5,1.4v7.7c0,0.5-0.3,0.9-0.7,1l-4.6,1.8c-0.1,0.1-0.3,0.1-0.4,0.1c-0.3,0-0.5-0.1-0.7-0.3
		c-0.2-0.2-0.3-0.5-0.3-0.7v-9.5c0-0.5-0.2-1-0.5-1.4c0,0,0,0,0,0l-8.2-11.6c-0.2-0.3-0.3-0.8-0.1-1.1c0.2-0.4,0.5-0.6,0.9-0.6h22.5
		c0.4,0,0.8,0.2,0.9,0.6C37.4,15.2,37.3,15.6,37.1,15.9z"/>
</g>
</svg>
