<?xml version="1.0" encoding="utf-8"?>
<!-- Generator: Adobe Illustrator 21.0.0, SVG Export Plug-In . SVG Version: 6.00 Build 0)  -->
<svg version="1.0" xmlns="http://www.w3.org/2000/svg" xmlns:xlink="http://www.w3.org/1999/xlink" x="0px" y="0px" width="700px"
	 height="60px" viewBox="0 0 700 60" style="enable-background:new 0 0 700 60;" xml:space="preserve">
<style type="text/css">
	.st0{fill:#B4B739;}
	.st1{fill:#FFFFFF;}
</style>
<g id="Layer_2">
</g>
<g id="Layer_1">
	<g>
		<path class="st0" d="M49.9,54.6l-0.1-26.4L36.9,49.7h-6.3L18,28.9v25.6H5V4.9h11.6L34,33.6l17-28.7h11.6l0.1,49.7H49.9z"/>
		<path class="st0" d="M110,43.4v11.2H71.3v-8.8l18.6-17.4c1.8-1.7,3-3.2,3.6-4.4c0.6-1.2,0.9-2.4,0.9-3.7c0-1.6-0.5-2.9-1.6-3.8
			c-1.1-0.9-2.7-1.3-4.8-1.3c-1.8,0-3.5,0.4-5.1,1.2c-1.5,0.8-2.8,2-3.8,3.6l-10.4-5.8c1.9-3.2,4.7-5.8,8.2-7.6
			c3.5-1.8,7.6-2.8,12.4-2.8c3.8,0,7.1,0.6,10.1,1.8c2.9,1.2,5.2,3,6.8,5.3c1.6,2.3,2.5,5,2.5,8c0,2.7-0.6,5.2-1.7,7.6
			c-1.2,2.4-3.4,5.1-6.7,8.1l-9.4,8.7H110z"/>
		<path class="st1" d="M118.1,4.9h23.5c5.4,0,10.3,1,14.5,3.1c4.2,2,7.5,4.9,9.8,8.7c2.3,3.7,3.5,8.1,3.5,13.1c0,5-1.2,9.4-3.5,13.1
			c-2.3,3.7-5.6,6.6-9.8,8.7c-4.2,2-9,3.1-14.5,3.1h-23.5V4.9z M141.1,43.4c4.3,0,7.7-1.2,10.3-3.6c2.6-2.4,3.9-5.8,3.9-10
			s-1.3-7.6-3.9-10c-2.6-2.4-6-3.6-10.3-3.6h-8.9v27.3H141.1z"/>
		<path class="st1" d="M218.1,43.7v10.9h-39.9V4.9h39v10.9h-25.1v8.4h22.1v10.5h-22.1v9.1H218.1z"/>
		<path class="st1" d="M261.8,7.1c3.3,1.5,5.9,3.6,7.7,6.4c1.8,2.8,2.7,6,2.7,9.8c0,3.7-0.9,7-2.7,9.7c-1.8,2.7-4.4,4.9-7.7,6.4
			c-3.3,1.5-7.2,2.2-11.7,2.2h-8.7v13h-14.1V4.9h22.7C254.6,4.9,258.5,5.6,261.8,7.1z M255.8,28.6c1.5-1.3,2.2-3,2.2-5.4
			c0-2.3-0.7-4.1-2.2-5.4c-1.5-1.3-3.6-1.9-6.5-1.9h-7.8v14.6h7.8C252.1,30.5,254.3,29.9,255.8,28.6z"/>
		<path class="st1" d="M280.4,4.9h14.1v38.6h23.7v11.2h-37.8V4.9z"/>
		<path class="st1" d="M335.3,52.2c-4.2-2.2-7.5-5.3-9.9-9.2c-2.4-3.9-3.6-8.4-3.6-13.3c0-4.9,1.2-9.4,3.6-13.3
			c2.4-3.9,5.7-7,9.9-9.2c4.2-2.2,8.9-3.3,14.2-3.3c5.3,0,10,1.1,14.2,3.3c4.2,2.2,7.5,5.3,9.9,9.2c2.4,3.9,3.6,8.4,3.6,13.3
			c0,4.9-1.2,9.4-3.6,13.3c-2.4,3.9-5.7,7-9.9,9.2c-4.2,2.2-8.9,3.3-14.2,3.3C344.2,55.6,339.5,54.5,335.3,52.2z M356.3,42.2
			c2-1.2,3.6-2.9,4.8-5c1.2-2.2,1.8-4.6,1.8-7.4c0-2.8-0.6-5.3-1.8-7.4c-1.2-2.2-2.8-3.8-4.8-5c-2-1.2-4.3-1.8-6.8-1.8
			c-2.5,0-4.8,0.6-6.8,1.8c-2,1.2-3.6,2.9-4.8,5c-1.2,2.2-1.8,4.6-1.8,7.4c0,2.8,0.6,5.3,1.8,7.4c1.2,2.2,2.8,3.8,4.8,5
			c2,1.2,4.3,1.8,6.8,1.8C352,43.9,354.3,43.3,356.3,42.2z"/>
		<path class="st1" d="M410.4,36.8v17.8h-14.1v-18l-19-31.7h14.8L404,24.6l11.8-19.7h13.6L410.4,36.8z"/>
		<path class="st1" d="M479.1,54.6L479,28.2l-12.8,21.5h-6.2l-12.7-20.7v25.6h-13V4.9h11.6l17.5,28.7l17-28.7h11.6l0.1,49.7H479.1z"
			/>
		<path class="st1" d="M543.3,43.7v10.9h-39.9V4.9h39v10.9h-25.1v8.4h22.1v10.5h-22.1v9.1H543.3z"/>
		<path class="st1" d="M599.9,4.9v49.7h-11.6l-21.9-26.5v26.5h-13.8V4.9h11.6l21.9,26.5V4.9H599.9z"/>
		<path class="st1" d="M621.8,16h-15.3V4.9h44.5V16h-15.2v38.6h-14.1V16z"/>
		<path class="st1" d="M663.4,54.1c-3.8-1-6.9-2.3-9.2-4l4.6-10.4c2.2,1.5,4.8,2.7,7.7,3.6c2.9,0.9,5.8,1.3,8.7,1.3
			c5.4,0,8.1-1.3,8.1-4c0-1.4-0.8-2.5-2.3-3.2c-1.5-0.7-4-1.4-7.4-2.2c-3.7-0.8-6.9-1.7-9.4-2.6c-2.5-0.9-4.7-2.4-6.5-4.4
			c-1.8-2-2.7-4.8-2.7-8.2c0-3,0.8-5.8,2.5-8.2c1.7-2.4,4.1-4.4,7.4-5.8c3.3-1.4,7.3-2.1,12.1-2.1c3.3,0,6.5,0.4,9.7,1.1
			c3.2,0.7,6,1.8,8.4,3.2l-4.3,10.4c-4.7-2.6-9.3-3.8-13.8-3.8c-2.8,0-4.8,0.4-6.1,1.2c-1.3,0.8-1.9,1.9-1.9,3.2
			c0,1.3,0.8,2.3,2.3,3c1.5,0.7,4,1.3,7.3,2.1c3.8,0.8,6.9,1.7,9.4,2.6s4.6,2.4,6.5,4.4c1.8,2,2.7,4.7,2.7,8.2c0,3-0.8,5.7-2.5,8.1
			c-1.7,2.4-4.1,4.3-7.5,5.8c-3.3,1.4-7.3,2.2-12.1,2.2C671,55.6,667.1,55.1,663.4,54.1z"/>
	</g>
</g>
</svg>
