<?xml version="1.0" encoding="utf-8"?>
<!-- Generator: Adobe Illustrator 26.0.1, SVG Export Plug-In . SVG Version: 6.00 Build 0)  -->
<svg version="1.1" id="Layer_1" xmlns="http://www.w3.org/2000/svg" xmlns:xlink="http://www.w3.org/1999/xlink" x="0px" y="0px"
	 viewBox="0 0 113.68 53.02" style="enable-background:new 0 0 113.68 53.02;" xml:space="preserve">
<style type="text/css">
	.st0{fill-rule:evenodd;clip-rule:evenodd;}
	.st1{fill:#009FE3;}
</style>
<g>
	<polyline points="46.6,25.42 56.15,25.42 56.15,21.63 50.92,21.63 50.92,8.28 46.6,8.28 46.6,25.42 	"/>
	<path d="M57.28,25.42h3.8v-7.04c0-0.62,0-2.52,2.13-2.52c2.04,0,2.04,2.04,2.04,2.65v6.91h3.8v-7.09c0-2.27-0.11-3.39-1.19-4.64
		c-0.8-0.96-2.24-1.4-3.45-1.4c-1.35,0-2.63,0.46-3.27,1.6l-0.16,0.18V8.28h-3.69V25.42"/>
	<path class="st0" d="M69.67,18.96c0,3.16,2.25,6.86,6.95,6.86c4.69,0,6.95-3.7,6.95-6.86c0-3.16-2.25-6.86-6.95-6.86
		C71.92,12.1,69.67,15.79,69.67,18.96 M73.53,18.96c0-1.88,1.42-3.25,3.09-3.25c1.67,0,3.09,1.37,3.09,3.25s-1.42,3.26-3.09,3.26
		C74.94,22.21,73.53,20.84,73.53,18.96"/>
	<path class="st0" d="M88.03,12.51h-3.8v12.91h3.8V12.51z M88.03,8.28h-3.8v2.88h3.8V8.28z"/>
	<path d="M98.39,16.13c-0.32-3.34-2.95-4-4.62-4c-2.63,0-4.79,1.83-4.79,4.34c0,2.06,1.37,3.1,2.73,3.6c1.54,0.56,3.19,0.5,3.19,1.8
		c0,0.81-0.75,1.06-1.39,1.06c-0.16,0-1.28-0.14-1.28-1.36l-3.5,0.02c0.34,3.34,2.82,4.23,4.75,4.23c2.81,0,5.23-1.73,5.23-4.4
		c0-2.61-1.97-3.48-4.12-4.08c-1.01-0.3-1.94-0.31-1.94-1.37c0-0.34,0.27-1.06,1.08-1.06c1.12,0,1.17,0.96,1.19,1.23H98.39"/>
	<polyline points="104.65,8.28 100.85,8.28 100.85,12.51 99.2,12.51 99.2,15.39 100.85,15.39 100.85,25.42 104.65,25.42 
		104.65,15.39 106.31,15.39 106.31,12.51 104.65,12.51 104.65,8.28 	"/>
	<polyline class="st1" points="17.09,31.32 27.22,31.32 30.28,27.41 30.28,34.1 30.29,34.11 28.05,36.88 17.09,36.88 17.09,31.32 	
		"/>
	<polyline class="st1" points="23.26,27.53 30.27,18.82 30.27,25.51 30.28,25.52 28.68,27.53 23.26,27.53 	"/>
	<path class="st1" d="M45.6,8.2l-7.41,9.55l0.02,0.03c2.23,3.19,3.75,6.63,3.75,10.75c0,9.53-7.73,17.26-17.27,17.26
		c-9.53,0-17.26-7.73-17.26-17.26c0-9.53,7.48-17.33,17.01-17.33l2.53-3.01h6.85l-7.01,8.73l-0.05-0.01
		c-0.71-0.13-1.44-0.2-2.19-0.2c-6.56,0-11.87,5.32-11.87,11.87c0,6.56,5.31,11.87,11.87,11.87c6.56,0,11.87-5.31,11.87-11.87
		c0-4.35-2.34-8.16-5.84-10.22h0.04l8.17-10.17L45.6,8.2"/>
</g>
</svg>
