<svg xmlns="http://www.w3.org/2000/svg" viewBox="0 0 383.4 287.2"><path d="M0,19.4c1.2-2.9,2.1-5.9,3.8-8.5C8.4,3.6,15.3.1,23.9.1H357.7c7.5,0,14.1,1.8,19.2,7.5s8.2,15.4,4.7,24.3-10.4,13.9-20,14.7a51.9,51.9,0,0,1-5.6.1H28.9c-17.1,0-22.4-3.5-28.9-19Z" style="fill:#fff"/><path d="M0,259.6c.9-2.1,1.6-4.4,2.7-6.4a22.5,22.5,0,0,1,18.7-12.5h338c11.3,0,20.4,7,23,17.2,3.9,14.7-6.6,28.7-22.1,29.4H28.8c-17,0-22.7-3.9-28.8-19.3Z" style="fill:#fff"/><path d="M0,139.9c1.4-3.2,2.3-6.7,4.2-9.5,4.9-7.1,11.9-10.1,20.6-10.1,52.8.1,105.7,0,158.6,0H358.9c12.4,0,21.5,7.3,23.9,18.9,2.7,13.5-7.6,26.8-21.2,27.5H28.5C11.6,166.9,6,163,0,147.4Z" style="fill:#fff"/></svg>