<svg xmlns="http://www.w3.org/2000/svg" viewBox="0 0 383.5 383.4"><path d="M0,203.7v-24c.2-1,.5-2.1.7-3.2,1.9-11.4,3-23.1,6-34.2C27.2,65.7,90.4,11.2,169.9,1.4A184.9,184.9,0,0,1,276.6,20c87.6,43.8,128.7,143.8,95.3,235.9-25,68.9-75.3,110-147.2,124.5-7.2,1.4-14.5,2-21.8,3H179.7l-13.6-1.7c-38.9-5.6-73.1-21.1-102.2-47.4q-49.2-44.2-61-109.6C1.7,217.8,1,210.7,0,203.7Zm32-12.4c0,88.6,71.3,160.1,159.4,160A159.6,159.6,0,0,0,351.3,191.5c.1-88-71.4-159.4-159.6-159.4S32,103.4,32,191.3Z" style="fill:#fff"/><path d="M295.6,145.4c2.2-4.4,4.2-8.3,6.2-12.1,4.6-8.6,13.7-11.7,21.9-7.6s10.9,13.6,6.5,22.1q-13.1,25.3-26.4,50.7c-4.7,8.8-13.7,11.6-22.6,7q-24.9-12.9-49.7-25.9c-8.6-4.6-11.7-13.8-7.6-21.9s13.6-10.9,22.4-6.4l21.2,11a27.4,27.4,0,0,0-1.1-3.4c-14.6-33.7-50.2-53.2-87.2-47.9-35.3,5-63.8,33.9-68.5,69.6a81.7,81.7,0,0,0,87.9,92.6,80.4,80.4,0,0,0,50-22.9c4.5-4.4,9.7-6.6,15.9-5,12.3,3.1,16.3,17.8,7.3,26.9a110.2,110.2,0,0,1-52,29.5c-65.3,16.3-129.3-26-140.2-92.6-9.9-60,32.1-118.8,91.9-129,51.5-8.8,100,16.1,122.9,63.1C294.6,143.7,295,144.3,295.6,145.4Z" style="fill:#fff"/></svg>